<?xml version="1.0" encoding="UTF-8" standalone="no"?> <!-- Created with Vectornator for iOS (http://vectornator.io/) --><!DOCTYPE svg PUBLIC "-//W3C//DTD SVG 1.1//EN" "http://www.w3.org/Graphics/SVG/1.1/DTD/svg11.dtd">
<svg height="100%" style="fill-rule:nonzero;clip-rule:evenodd;stroke-linecap:round;stroke-linejoin:round;" xmlns:xlink="http://www.w3.org/1999/xlink" xmlns="http://www.w3.org/2000/svg" xml:space="preserve" width="100%" xmlns:vectornator="http://vectornator.io" version="1.1" viewBox="100 85 650 400">
<metadata>
<vectornator:setting key="DimensionsVisible" value="1"/>
<vectornator:setting key="PencilOnly" value="0"/>
<vectornator:setting key="SnapToPoints" value="0"/>
<vectornator:setting key="GuidesVisible" value="1"/>
<vectornator:setting key="CMYKEnabledKey" value="0"/>
<vectornator:setting key="OutlineMode" value="0"/>
<vectornator:setting key="RulersVisible" value="1"/>
<vectornator:setting key="SnapToEdges" value="0"/>
<vectornator:setting key="DisplayWhiteBackground" value="0"/>
<vectornator:setting key="doHistoryDisabled" value="0"/>
<vectornator:setting key="TimeLapseWatermarkDisabled" value="0"/>
<vectornator:setting key="SnapToGuides" value="1"/>
<vectornator:setting key="Units" value="Points"/>
<vectornator:setting key="SnapToGrid" value="0"/>
<vectornator:setting key="IsolateActiveLayer" value="0"/>
<vectornator:setting key="DynamicGuides" value="0"/>
</metadata>
<defs/>
<g id="Untitled" vectornator:layerName="Untitled">
<g opacity="1">
<path d="M-0.578432+463.316C-0.578432+344.676-0.538432+226.026-0.728432+107.386C-0.738432+102.436+0.311568+101.446+5.62157+101.456C124.392+101.636+243.162+101.636+361.932+101.456C367.232+101.446+368.282+102.426+368.282+107.386C368.092+224.106+368.092+340.816+368.282+457.536C368.292+462.486+367.242+463.466+361.932+463.466C241.092+463.276+120.252+463.316-0.578432+463.316ZM183.192+351.556C183.192+351.566+183.192+351.576+183.192+351.576C196.872+351.576+210.562+351.136+224.212+351.716C235.052+352.186+244.712+350.596+253.992+344.846C265.342+337.816+269.832+328.016+269.642+316.016C269.492+306.336+264.662+298.966+254.982+294.816C248.882+292.196+246.292+282.986+251.042+278.606C260.602+269.796+264.702+258.376+269.512+247.216C270.602+244.676+270.322+242.676+268.722+240.486C262.452+231.886+255.512+223.876+246.722+217.336C240.472+212.686+233.732+210.726+225.802+212.616C212.852+215.696+199.852+218.576+186.892+221.646C184.662+222.176+182.782+222.786+180.252+222.126C168.132+218.936+155.902+216.096+143.702+213.156C134.742+210.996+126.512+211.606+118.972+217.486C110.352+224.206+103.322+232.106+97.1216+240.756C95.7516+242.676+95.3316+244.526+96.3416+246.836C101.192+257.966+105.102+269.486+114.662+278.306C119.712+282.956+117.282+292.256+110.672+294.946C104.912+297.296+100.982+301.276+98.4916+306.506C89.6716+324.976+107.292+351.116+129.002+351.466C147.062+351.786+165.132+351.556+183.192+351.556Z" opacity="1" fill="none"/>
<path d="M183.192+351.556C165.132+351.556+147.062+351.786+129.002+351.496C107.282+351.146+89.6716+325.006+98.4916+306.536C100.992+301.306+104.912+297.326+110.672+294.976C117.282+292.276+119.702+282.986+114.662+278.336C105.102+269.516+101.202+257.996+96.3416+246.866C95.3316+244.546+95.7516+242.696+97.1216+240.786C103.312+232.136+110.342+224.236+118.972+217.516C126.512+211.636+134.752+211.026+143.702+213.186C155.902+216.126+168.132+218.966+180.252+222.156C182.782+222.826+184.672+222.206+186.892+221.676C199.842+218.606+212.852+215.716+225.802+212.646C233.732+210.766+240.472+212.726+246.722+217.366C255.512+223.896+262.452+231.906+268.722+240.516C270.322+242.706+270.602+244.696+269.512+247.246C264.712+258.406+260.602+269.826+251.042+278.636C246.292+283.016+248.872+292.226+254.982+294.846C264.662+298.996+269.492+306.366+269.642+316.046C269.832+328.046+265.342+337.846+253.992+344.876C244.712+350.616+235.052+352.206+224.212+351.746C210.562+351.156+196.872+351.606+183.192+351.606C183.192+351.576+183.192+351.566+183.192+351.556ZM128.012+287.866C125.842+285.646+123.702+283.336+123.232+288.826C122.902+292.576+124.412+295.256+128.012+296.926C132.892+306.526+141.232+314.916+139.072+326.926C138.392+330.696+140.812+331.676+144.212+329.266C150.182+325.056+156.152+320.846+162.122+316.636C164.492+314.966+164.852+313.356+162.192+311.526C150.772+303.656+139.402+295.746+128.012+287.866ZM237.972+296.896C241.542+295.226+243.082+292.576+242.762+288.826C242.312+283.496+240.232+285.446+237.972+287.806C226.792+295.546+215.652+303.346+204.392+310.976C201.022+313.266+201.512+314.946+204.482+317.006C210.272+321.036+215.982+325.176+221.732+329.256C225.142+331.676+227.582+330.606+226.912+326.886C224.772+314.896+233.112+306.506+237.972+296.896ZM257.852+332.986C263.082+326.956+264.262+319.926+262.842+312.596C261.552+305.966+257.452+301.176+250.042+299.716C246.572+299.026+242.962+299.556+241.482+302.976C239.772+306.936+244.532+305.666+246.062+307.066C247.122+308.036+249.062+308.526+248.222+310.296C247.572+311.666+246.132+311.146+244.912+310.676C237.482+307.816+234.952+312.506+233.612+317.686C232.282+322.826+232.102+328.126+240.102+328.856C242.022+329.036+242.772+330.016+242.662+331.726C241.652+331.856+240.592+331.826+239.642+332.126C237.292+332.876+233.342+329.646+232.622+333.766C231.962+337.506+235.032+339.766+238.722+340.986C245.372+343.166+252.912+340.016+257.852+332.986ZM150.032+295.196C159.812+302.216+169.692+309.106+179.302+316.316C182.502+318.716+184.632+317.836+187.332+315.876C196.842+308.936+206.462+302.126+216.042+295.266C222.152+291.286+228.522+287.606+233.982+281.696C229.112+280.776+225.732+280.326+223.222+283.936C218.042+291.386+210.032+293.516+201.552+291.506C189.022+288.536+176.982+288.626+164.432+291.496C156.092+293.396+147.922+291.476+142.742+283.926C140.072+280.036+136.622+280.776+131.962+281.836C137.652+287.676+143.842+291.436+150.032+295.196ZM182.392+229.096C177.262+227.516+172.152+225.876+167.002+224.366C160.332+222.406+154.632+224.166+150.372+229.116C140.182+240.966+135.622+254.846+134.402+269.796C134.252+271.646+134.232+273.916+136.922+274.446C139.272+274.906+139.732+272.976+140.652+271.526C143.582+266.886+145.542+268.166+146.852+272.536C147.142+283.506+151.522+287.176+163.192+286.076C166.002+285.816+168.752+285.096+171.552+284.786C178.262+284.046+180.472+280.606+179.912+274.456C179.602+271.026+178.142+269.416+175.102+267.996C171.822+266.456+168.652+264.126+169.522+260.216C170.412+256.256+174.512+255.616+178.052+255.206C181.332+254.826+184.752+254.856+188.042+255.216C191.632+255.606+195.692+256.416+196.552+260.276C197.412+264.126+194.312+266.766+190.872+267.946C184.632+270.076+186.512+274.736+186.282+278.796C186.032+283.226+189.842+283.536+192.992+284.286C196.222+285.056+199.502+285.756+202.812+286.096C214.292+287.266+218.902+283.376+219.132+272.556C220.152+269.346+221.402+266.496+224.912+270.786C226.222+272.386+226.422+275.456+229.642+274.226C232.302+273.216+231.812+270.526+231.612+268.476C230.232+254.046+225.302+240.826+215.782+229.236C212.682+225.456+208.522+224.496+203.592+224.276C196.282+223.956+190.092+226.926+183.602+229.116C183.192+229.096+182.792+229.086+182.392+229.096ZM229.502+217.646C227.652+218.046+224.132+218.726+220.672+219.606C218.262+220.226+217.082+221.446+219.102+223.726C231.362+237.556+237.002+253.696+238.362+271.386C238.642+275.006+241.552+275.426+244.632+274.536C251.692+272.486+264.422+249.136+262.142+242.526C261.832+241.626+261.322+240.746+260.742+239.976C255.092+232.476+248.772+225.586+240.552+220.376C237.712+218.586+234.712+217.366+229.502+217.646ZM134.572+217.536C125.282+217.566+103.662+236.816+103.332+245.136C103.312+245.616+103.292+246.116+103.432+246.566C106.522+256.046+110.382+265.146+117.982+272.406C119.852+274.196+122.022+275.476+124.862+274.716C128.192+273.826+127.732+271.116+127.892+268.796C128.842+254.306+134.082+241.126+142.402+229.036C148.762+219.806+148.532+219.066+136.642+217.726C135.872+217.636+135.102+217.586+134.572+217.536ZM123.222+330.196C124.142+329.646+124.692+329.046+125.302+328.996C132.962+328.446+133.932+323.726+132.492+318.226C131.092+312.886+128.942+307.626+120.942+310.756C119.742+311.226+118.182+311.676+117.742+310.146C117.102+307.926+119.502+307.686+120.842+306.716C122.242+305.706+125.752+306.596+124.822+303.536C124.072+301.056+121.802+299.766+118.962+299.566C114.202+299.236+110.532+301.166+107.452+304.356C97.2016+314.996+103.922+336.846+118.652+340.796C123.392+342.066+127.842+341.746+131.512+338.326C133.012+336.916+133.982+335.046+133.192+333.086C132.252+330.766+130.132+332.276+128.502+332.256C126.762+332.226+124.882+332.706+123.222+330.196ZM134.172+343.726C134.502+344.266+134.832+344.796+135.162+345.336C167.152+345.336+199.152+345.336+231.142+345.336C221.462+336.416+211.002+329.106+200.802+321.506C196.622+318.386+192.972+318.246+189.232+321.686C184.922+325.646+180.962+325.446+176.512+321.626C174.492+319.896+172.052+316.896+168.502+319.396C157.022+327.466+145.612+335.616+134.172+343.726Z" opacity="1" fill="#393939"/>
<path d="M219.122+272.546C218.882+283.366+214.282+287.246+202.802+286.086C199.492+285.746+196.212+285.046+192.982+284.276C189.832+283.516+186.022+283.216+186.272+278.786C186.502+274.716+184.622+270.066+190.862+267.936C194.302+266.756+197.402+264.126+196.542+260.266C195.682+256.406+191.622+255.596+188.032+255.206C184.742+254.846+181.332+254.816+178.042+255.196C174.502+255.606+170.402+256.246+169.512+260.206C168.632+264.116+171.812+266.456+175.092+267.986C178.132+269.406+179.592+271.016+179.902+274.446C180.462+280.596+178.252+284.046+171.542+284.776C168.742+285.086+165.982+285.796+163.182+286.066C151.522+287.166+147.142+283.496+146.842+272.526C148.392+264.796+154.572+260.906+161.282+257.576C170.062+253.216+176.772+247.306+179.392+237.996C180.242+234.996+181.382+232.056+182.382+229.096C182.782+229.096+183.182+229.106+183.582+229.116C186.572+243.876+195.322+254.266+209.982+260.666C215.022+262.846+218.092+267.226+219.122+272.546Z" opacity="1" fill="#fbfbfb"/>
<path d="M229.502+217.646C234.722+217.366+237.712+218.586+240.552+220.386C248.762+225.596+255.092+232.486+260.742+239.986C261.322+240.766+261.832+241.636+262.142+242.536C264.422+249.146+251.692+272.496+244.632+274.546C241.552+275.436+238.642+275.006+238.362+271.396C237.002+253.696+231.362+237.556+219.102+223.736C217.082+221.456+218.262+220.236+220.672+219.616C224.132+218.726+227.652+218.056+229.502+217.646Z" opacity="1" fill="#828282"/>
<path d="M134.572+217.536C135.102+217.586+135.872+217.636+136.632+217.726C148.532+219.066+148.752+219.806+142.392+229.036C134.072+241.126+128.832+254.296+127.882+268.796C127.732+271.126+128.182+273.836+124.852+274.716C122.022+275.476+119.842+274.196+117.972+272.406C110.372+265.146+106.512+256.046+103.422+246.566C103.272+246.116+103.302+245.616+103.322+245.136C103.652+236.826+125.282+217.576+134.572+217.536Z" opacity="1" fill="#828282"/>
<path d="M182.392+229.096C181.382+232.066+180.242+234.996+179.402+237.996C176.772+247.306+170.062+253.206+161.292+257.576C154.592+260.906+148.402+264.796+146.852+272.526C145.532+268.156+143.572+266.876+140.652+271.516C139.742+272.966+139.282+274.906+136.922+274.436C134.232+273.906+134.252+271.636+134.402+269.786C135.622+254.836+140.182+240.956+150.372+229.106C154.632+224.156+160.332+222.396+167.002+224.356C172.152+225.866+177.262+227.506+182.392+229.096ZM160.102+242.066C156.762+242.306+154.472+243.816+154.622+247.366C154.752+250.576+156.542+252.936+160.122+253.126C163.642+253.316+166.052+251.386+166.322+248.096C166.642+244.356+164.152+242.526+160.102+242.066Z" opacity="1" fill="#838383"/>
<path d="M219.122+272.546C218.092+267.226+215.012+262.846+209.982+260.656C195.322+254.266+186.572+243.866+183.582+229.106C190.082+226.916+196.262+223.946+203.572+224.266C208.512+224.486+212.672+225.446+215.762+229.226C225.282+240.816+230.212+254.036+231.592+268.466C231.792+270.516+232.282+273.196+229.622+274.216C226.402+275.446+226.212+272.376+224.892+270.776C221.392+266.486+220.142+269.336+219.122+272.546ZM205.642+242.166C202.082+242.436+199.732+244.096+199.642+247.516C199.552+250.896+201.682+253.026+205.282+253.136C208.882+253.246+211.152+251.246+211.292+247.856C211.422+244.446+209.212+242.636+205.642+242.166Z" opacity="1" fill="#838383"/>
<path d="M123.222+330.196C124.872+332.716+126.762+332.236+128.502+332.256C130.132+332.276+132.242+330.766+133.192+333.086C133.992+335.056+133.022+336.926+131.512+338.326C127.842+341.756+123.402+342.066+118.652+340.796C103.912+336.846+97.2016+314.996+107.452+304.356C110.532+301.156+114.202+299.236+118.962+299.566C121.802+299.766+124.072+301.056+124.822+303.536C125.742+306.596+122.232+305.706+120.842+306.716C119.502+307.686+117.102+307.926+117.742+310.146C118.182+311.676+119.742+311.216+120.942+310.756C128.952+307.626+131.092+312.886+132.492+318.226C133.942+323.726+132.962+328.446+125.302+328.996C124.702+329.036+124.142+329.646+123.222+330.196Z" opacity="1" fill="#fafafa"/>
<path d="M216.052+295.266C206.472+302.126+196.852+308.936+187.342+315.876C184.642+317.846+182.512+318.726+179.312+316.316C169.702+309.106+159.822+302.216+150.042+295.196C160.352+295.686+170.582+295.696+180.442+292.116C181.782+291.626+183.702+291.476+184.962+291.996C194.972+296.106+205.522+295.506+216.052+295.266Z" opacity="1" fill="#b9b9b9"/>
<path d="M242.652+331.716C242.762+330.006+242.012+329.026+240.092+328.846C232.092+328.116+232.272+322.816+233.602+317.676C234.942+312.496+237.472+307.806+244.902+310.666C246.122+311.136+247.562+311.656+248.212+310.286C249.052+308.526+247.112+308.026+246.052+307.056C244.512+305.656+239.752+306.926+241.472+302.966C242.952+299.556+246.562+299.026+250.032+299.706C257.442+301.176+261.542+305.956+262.832+312.586C264.252+319.916+263.082+326.946+257.842+332.976C252.452+332.356+249.412+338.556+243.752+337.186C241.812+336.716+239.122+336.736+238.802+334.586C238.542+332.716+241.742+333.186+242.652+331.716Z" opacity="1" fill="#fafafa"/>
<path d="M134.172+343.726C145.612+335.606+157.022+327.466+168.502+319.396C172.062+316.896+174.502+319.896+176.512+321.626C180.962+325.446+184.922+325.646+189.232+321.686C192.982+318.246+196.622+318.386+200.802+321.506C211.002+329.106+221.462+336.416+231.142+345.336C199.152+345.336+167.152+345.336+135.162+345.336C134.832+344.796+134.502+344.266+134.172+343.726ZM222.272+344.196C215.772+336.596+207.022+333.076+200.232+327.386C196.962+324.646+193.912+324.346+190.632+326.936C185.682+330.846+180.792+330.216+175.752+327.106C173.632+325.796+171.202+323.856+168.682+325.536C160.232+331.146+151.992+337.026+143.672+342.806C143.942+343.266+144.212+343.736+144.482+344.196C170.072+344.196+195.672+344.196+222.272+344.196Z" opacity="1" fill="#b9b9b9"/>
<path d="M237.972+296.896C233.102+306.496+224.772+314.886+226.922+326.886C227.592+330.596+225.152+331.666+221.742+329.256C215.992+325.176+210.282+321.036+204.492+317.006C201.522+314.946+201.032+313.256+204.402+310.976C215.662+303.346+226.802+295.546+237.982+287.806C237.982+290.846+237.982+293.876+237.972+296.896Z" opacity="1" fill="#b8b8b8"/>
<path d="M128.012+287.866C139.402+295.756+150.772+303.666+162.192+311.516C164.852+313.346+164.482+314.956+162.122+316.626C156.152+320.836+150.182+325.046+144.212+329.256C140.812+331.656+138.392+330.676+139.072+326.916C141.242+314.906+132.892+306.516+128.012+296.916C128.012+293.896+128.012+290.876+128.012+287.866Z" opacity="1" fill="#b8b8b8"/>
<path d="M216.052+295.266C205.532+295.496+194.982+296.096+184.942+291.986C183.682+291.466+181.772+291.626+180.422+292.106C170.562+295.686+160.332+295.676+150.022+295.186C143.842+291.426+137.642+287.666+131.952+281.836C136.602+280.786+140.062+280.036+142.732+283.926C147.912+291.476+156.082+293.396+164.422+291.496C176.972+288.636+189.012+288.546+201.542+291.506C210.022+293.516+218.032+291.386+223.212+283.936C225.722+280.316+229.102+280.776+233.972+281.696C228.532+287.606+222.152+291.296+216.052+295.266Z" opacity="1" fill="#b9b9b9"/>
<path d="M242.652+331.716C241.742+333.186+238.542+332.716+238.812+334.596C239.122+336.746+241.822+336.726+243.762+337.196C249.422+338.576+252.462+332.366+257.852+332.986C252.912+340.016+245.362+343.166+238.712+340.976C235.022+339.766+231.962+337.496+232.612+333.756C233.332+329.636+237.282+332.856+239.632+332.116C240.582+331.816+241.642+331.836+242.652+331.716Z" opacity="1" fill="#ffffff"/>
<path d="M128.012+287.866C128.012+290.886+128.012+293.906+128.012+296.916C124.412+295.246+122.902+292.566+123.232+288.816C123.702+283.326+125.842+285.636+128.012+287.866Z" opacity="1" fill="#b9b9b9"/>
<path d="M237.972+296.896C237.972+293.866+237.982+290.846+237.982+287.816C240.232+285.446+242.312+283.506+242.772+288.826C243.092+292.576+241.552+295.236+237.972+296.896Z" opacity="1" fill="#b9b9b9"/>
<path d="M160.102+242.066C164.152+242.526+166.642+244.356+166.332+248.096C166.062+251.386+163.642+253.306+160.132+253.126C156.542+252.936+154.762+250.586+154.632+247.366C154.472+243.816+156.762+242.306+160.102+242.066Z" opacity="1" fill="#3b3b3b"/>
<path d="M205.642+242.166C209.222+242.636+211.432+244.436+211.292+247.866C211.152+251.246+208.882+253.246+205.282+253.146C201.682+253.036+199.552+250.906+199.642+247.526C199.732+244.096+202.082+242.436+205.642+242.166Z" opacity="1" fill="#3a3a3a"/>
<path d="M222.272+344.196C195.672+344.196+170.072+344.196+144.482+344.196C144.212+343.736+143.942+343.266+143.672+342.806C151.992+337.026+160.232+331.146+168.682+325.536C171.202+323.856+173.632+325.806+175.752+327.106C180.792+330.216+185.682+330.846+190.632+326.936C193.912+324.346+196.952+324.636+200.232+327.386C207.022+333.076+215.772+336.606+222.272+344.196Z" opacity="1" fill="#b9b9b9"/>
</g>
<g opacity="1">
<path d="M395.271+333.246C394.993+335.32+394.251+337.088+393.046+338.55C391.841+340.011+390.45+341.025+388.874+341.591C387.298+342.156+385.676+342.18+384.007+341.661C382.338+341.143+380.948+339.893+379.835+337.913C378.908+336.31+378.375+334.637+378.236+332.892C378.097+331.148+377.935+329.333+377.749+327.447C377.564+325.373+377.355+323.558+377.123+322.002C376.892+320.446+376.637+318.631+376.359+316.556C375.524+310.899+374.597+305.312+373.577+299.796C372.558+294.28+371.399+288.741+370.101+283.177C368.247+287.892+366.485+292.559+364.817+297.18C363.148+301.8+361.479+306.467+359.81+311.182C358.512+314.671+357.238+318.183+355.986+321.719C354.735+325.255+353.275+328.673+351.606+331.973C351.05+333.105+350.122+334.024+348.825+334.731C347.527+335.438+346.136+335.839+344.653+335.933C343.169+336.028+341.779+335.815+340.481+335.297C339.183+334.778+338.21+333.906+337.561+332.68C333.574+324.854+329.634+317.075+325.741+309.343C321.847+301.611+317.953+293.832+314.06+286.006C313.596+290.815+313.179+295.647+312.808+300.503C312.437+305.359+312.02+310.192+311.556+315.001C311.464+316.509+311.371+318.348+311.278+320.517C311.186+322.685+311.023+324.878+310.792+327.093C310.56+329.309+310.282+331.431+309.957+333.458C309.633+335.485+309.1+337.065+308.358+338.196C307.246+340.082+305.785+341.308+303.978+341.874C302.17+342.439+300.408+342.486+298.693+342.015C296.978+341.544+295.541+340.577+294.382+339.116C293.224+337.654+292.691+335.792+292.783+333.529C292.969+329.663+293.293+325.844+293.757+322.072C294.22+318.301+294.637+314.482+295.008+310.616C295.75+302.224+296.515+293.879+297.303+285.582C298.091+277.284+298.856+268.892+299.597+260.406C299.783+257.955+300.269+255.692+301.057+253.617C301.845+251.543+303.537+250.081+306.133+249.233C307.153+248.856+308.219+248.714+309.331+248.808C310.444+248.903+311.464+249.233+312.391+249.798C314.43+251.119+316.03+252.934+317.188+255.244C318.347+257.554+319.437+259.746+320.456+261.821C322.218+265.215+323.933+268.633+325.602+272.075C327.27+275.516+328.939+278.934+330.608+282.329C332.647+286.666+334.71+290.933+336.796+295.129C338.882+299.325+341.037+303.544+343.262+307.787C343.818+306.373+344.351+304.959+344.861+303.544C345.371+302.13+345.904+300.716+346.461+299.301C347.48+296.85+348.431+294.374+349.311+291.876C350.192+289.377+351.096+286.902+352.023+284.45C353.321+281.244+354.549+278.086+355.708+274.974C356.867+271.863+358.003+268.704+359.115+265.498C360.042+263.141+360.923+260.595+361.757+257.86C362.592+255.126+363.936+252.816+365.79+250.93C367.088+249.516+368.502+248.667+370.031+248.384C371.561+248.101+372.998+248.219+374.342+248.738C375.686+249.256+376.892+250.128+377.958+251.354C379.024+252.58+379.789+253.994+380.252+255.597C380.808+257.766+381.457+260.218+382.199+262.952C382.941+265.686+383.59+268.138+384.146+270.307C385.166+274.267+386.093+278.156+386.927+281.975C387.761+285.794+388.549+289.684+389.291+293.644C390.589+300.15+391.725+306.585+392.698+312.95C393.672+319.314+394.529+325.75+395.271+332.256L395.271+333.246Z" opacity="1" fill="#000000"/>
<path d="M463.827+330.7C464.569+333.435+464.43+335.698+463.41+337.489C462.391+339.281+460.977+340.483+459.169+341.096C457.361+341.709+455.391+341.638+453.259+340.884C451.127+340.129+449.273+338.621+447.696+336.358C445.101+338.338+442.574+339.728+440.118+340.53C437.661+341.331+434.857+341.779+431.705+341.874C426.977+342.062+422.758+341.52+419.05+340.247C415.342+338.974+412.213+337.065+409.663+334.519C407.114+331.973+405.237+328.791+404.032+324.972C402.826+321.153+402.409+316.745+402.78+311.748C402.965+309.673+403.313+307.646+403.823+305.666C404.333+303.686+404.912+301.753+405.561+299.867C406.303+297.793+407.346+295.577+408.69+293.219C410.034+290.862+411.402+288.835+412.792+287.138C417.799+280.914+424.056+276.436+431.565+273.701C432.863+273.23+434.625+272.805+436.85+272.428C439.075+272.051+441.323+271.886+443.594+271.933C445.866+271.98+448.044+272.287+450.13+272.853C452.216+273.418+453.769+274.408+454.789+275.823C455.623+276.954+456.226+277.944+456.596+278.793C456.967+279.642+457.176+280.537+457.222+281.48C457.268+282.423+457.268+283.437+457.222+284.521C457.176+285.605+457.153+286.949+457.153+288.552C457.153+291.192+457.129+293.762+457.083+296.26C457.037+298.759+457.06+301.281+457.153+303.827C457.153+304.676+457.153+305.784+457.153+307.151C457.153+308.518+457.199+309.956+457.292+311.465C457.384+312.973+457.5+314.411+457.639+315.779C457.778+317.146+457.987+318.254+458.265+319.102L463.827+330.7ZM434.347+324.335C435.366+323.675+436.525+322.945+437.823+322.143C439.121+321.342+440.28+320.422+441.3+319.385C440.465+314.388+439.979+309.39+439.84+304.393C439.701+299.395+439.724+294.351+439.909+289.259C435.737+290.014+431.983+291.852+428.645+294.775C425.308+297.698+422.99+301.14+421.692+305.1C421.136+306.703+420.672+308.353+420.302+310.05C419.931+311.748+419.792+313.398+419.884+315.001C419.977+317.169+420.533+318.984+421.553+320.446C422.573+321.907+423.801+323.015+425.238+323.77C426.675+324.524+428.205+324.948+429.827+325.043C431.45+325.137+432.956+324.901+434.347+324.335Z" opacity="1" fill="#000000"/>
<path d="M492.335+332.963C492.149+334.849+491.5+336.523+490.388+337.984C489.276+339.446+488.001+340.506+486.564+341.166C485.127+341.826+483.574+341.968+481.905+341.591C480.237+341.214+478.753+340.176+477.455+338.479C476.714+337.536+476.181+336.475+475.856+335.297C475.532+334.118+475.323+332.892+475.23+331.619C475.138+330.347+475.115+329.074+475.161+327.801C475.207+326.528+475.23+325.373+475.23+324.335C475.138+318.772+475.115+313.256+475.161+307.787C475.207+302.319+475.184+296.802+475.091+291.239C475.091+288.976+474.952+286.69+474.674+284.38C474.396+282.07+474.535+279.783+475.091+277.52C475.555+275.823+476.366+274.361+477.525+273.135C478.684+271.91+479.982+271.061+481.419+270.59C482.856+270.118+484.339+270.071+485.869+270.448C487.398+270.825+488.719+271.815+489.832+273.418C491.315+275.304+492.057+277.166+492.057+279.005C492.057+280.844+492.057+283.083+492.057+285.723C492.057+288.929+492.057+292.135+492.057+295.341C492.057+298.547+492.103+301.706+492.196+304.817C492.289+309.343+492.335+313.869+492.335+318.395C492.335+322.921+492.335+327.447+492.335+331.973L492.335+332.963ZM473.979+252.486C474.35+248.997+475.532+246.428+477.525+244.777C479.518+243.127+481.627+242.326+483.852+242.373C486.077+242.42+488.14+243.292+490.04+244.99C491.941+246.687+492.937+249.091+493.03+252.203C493.216+255.409+492.404+257.884+490.597+259.628C488.789+261.373+486.726+262.363+484.408+262.598C482.091+262.834+479.912+262.198+477.873+260.689C475.833+259.18+474.581+256.776+474.118+253.476L473.979+252.486Z" opacity="1" fill="#000000"/>
<path d="M528.351+328.154C529.371+329.097+530.229+330.299+530.924+331.761C531.619+333.222+531.99+334.684+532.037+336.145C532.083+337.607+531.758+338.974+531.063+340.247C530.368+341.52+529.139+342.486+527.378+343.147C525.987+343.618+524.458+343.712+522.789+343.429C521.12+343.147+519.475+342.581+517.852+341.732C516.23+340.884+514.793+339.87+513.542+338.691C512.29+337.513+511.386+336.216+510.83+334.802C510.644+334.33+510.505+333.788+510.413+333.175C510.32+332.562+510.274+332.02+510.274+331.549L510.274+253.051C510.274+250.883+511.085+249.044+512.707+247.535C514.33+246.027+516.114+245.131+518.061+244.848C518.988+244.754+519.985+244.895+521.051+245.272C522.117+245.65+523.114+246.192+524.041+246.899C524.968+247.606+525.733+248.431+526.335+249.374C526.938+250.317+527.239+251.307+527.239+252.344C527.239+254.796+527.239+258.049+527.239+262.103C527.239+266.158+527.262+270.59+527.309+275.398C527.355+280.207+527.378+285.181+527.378+290.32C527.378+295.459+527.355+300.386+527.309+305.1C527.262+309.815+527.239+314.128+527.239+318.042C527.239+321.955+527.193+325.09+527.1+327.447L528.351+328.154Z" opacity="1" fill="#000000"/>
<path d="M549.211+257.295C549.489+256.257+549.952+255.244+550.601+254.254C551.25+253.264+552.015+252.391+552.896+251.637C553.776+250.883+554.75+250.341+555.816+250.011C556.882+249.681+557.971+249.704+559.084+250.081C562.514+248.667+566.014+247.488+569.583+246.545C573.152+245.602+576.721+245.06+580.291+244.919C583.86+244.777+587.383+245.107+590.859+245.909C594.336+246.71+597.696+248.195+600.941+250.364C603.537+252.061+605.831+254.183+607.824+256.729C609.818+259.275+611.463+261.962+612.761+264.791C614.986+269.882+616.006+274.951+615.82+279.995C615.635+285.04+614.476+289.731+612.344+294.068C610.212+298.405+607.222+302.224+603.375+305.524C599.527+308.825+595.008+311.229+589.816+312.738C585.922+313.869+581.959+314.411+577.926+314.364C573.894+314.317+569.931+314.058+566.037+313.586L566.037+327.306C566.037+328.343+566.083+329.427+566.176+330.559C566.269+331.69+566.292+332.822+566.245+333.953C566.199+335.085+566.06+336.193+565.828+337.277C565.596+338.361+565.156+339.375+564.507+340.318C563.395+342.204+561.958+343.359+560.196+343.783C558.435+344.207+556.743+344.113+555.121+343.5C553.498+342.887+552.108+341.85+550.949+340.388C549.79+338.927+549.211+337.159+549.211+335.085L549.211+309.626C547.449+308.683+546.151+307.505+545.317+306.09C544.482+304.676+544.112+303.238+544.204+301.776C544.297+300.315+544.761+298.924+545.595+297.604C546.429+296.284+547.588+295.2+549.071+294.351L549.071+258.143L549.211+257.295ZM589.677+263.518C585.783+261.915+581.82+261.443+577.787+262.103C573.755+262.763+569.838+263.989+566.037+265.781L566.037+296.614C570.394+297.368+574.844+297.557+579.387+297.18C583.929+296.802+588.101+295.388+591.902+292.937C594.591+291.145+596.445+288.882+597.464+286.148C598.484+283.413+598.855+280.632+598.577+277.803C598.299+274.974+597.372+272.263+595.796+269.67C594.22+267.077+592.18+265.026+589.677+263.518Z" opacity="1" fill="#000000"/>
<path d="M676.173+330.7C676.914+333.435+676.775+335.698+675.755+337.489C674.736+339.281+673.322+340.483+671.514+341.096C669.706+341.709+667.736+341.638+665.604+340.884C663.472+340.129+661.618+338.621+660.042+336.358C657.446+338.338+654.92+339.728+652.463+340.53C650.006+341.331+647.202+341.779+644.05+341.874C639.322+342.062+635.103+341.52+631.395+340.247C627.687+338.974+624.558+337.065+622.009+334.519C619.459+331.973+617.582+328.791+616.377+324.972C615.171+321.153+614.754+316.745+615.125+311.748C615.311+309.673+615.658+307.646+616.168+305.666C616.678+303.686+617.257+301.753+617.906+299.867C618.648+297.793+619.691+295.577+621.035+293.219C622.379+290.862+623.747+288.835+625.137+287.138C630.144+280.914+636.401+276.436+643.911+273.701C645.209+273.23+646.97+272.805+649.195+272.428C651.42+272.051+653.668+271.886+655.939+271.933C658.211+271.98+660.389+272.287+662.475+272.853C664.561+273.418+666.114+274.408+667.134+275.823C667.968+276.954+668.571+277.944+668.941+278.793C669.312+279.642+669.521+280.537+669.567+281.48C669.614+282.423+669.614+283.437+669.567+284.521C669.521+285.605+669.498+286.949+669.498+288.552C669.498+291.192+669.475+293.762+669.428+296.26C669.382+298.759+669.405+301.281+669.498+303.827C669.498+304.676+669.498+305.784+669.498+307.151C669.498+308.518+669.544+309.956+669.637+311.465C669.729+312.973+669.845+314.411+669.984+315.779C670.123+317.146+670.332+318.254+670.61+319.102L676.173+330.7ZM646.692+324.335C647.712+323.675+648.87+322.945+650.168+322.143C651.466+321.342+652.625+320.422+653.645+319.385C652.81+314.388+652.324+309.39+652.185+304.393C652.046+299.395+652.069+294.351+652.254+289.259C648.082+290.014+644.328+291.852+640.99+294.775C637.653+297.698+635.335+301.14+634.037+305.1C633.481+306.703+633.018+308.353+632.647+310.05C632.276+311.748+632.137+313.398+632.23+315.001C632.322+317.169+632.879+318.984+633.898+320.446C634.918+321.907+636.146+323.015+637.583+323.77C639.02+324.524+640.55+324.948+642.172+325.043C643.795+325.137+645.301+324.901+646.692+324.335Z" opacity="1" fill="#000000"/>
<path d="M705.514+328.154C706.534+329.097+707.392+330.299+708.087+331.761C708.782+333.222+709.153+334.684+709.199+336.145C709.246+337.607+708.921+338.974+708.226+340.247C707.531+341.52+706.302+342.486+704.541+343.147C703.15+343.618+701.621+343.712+699.952+343.429C698.283+343.147+696.638+342.581+695.015+341.732C693.393+340.884+691.956+339.87+690.704+338.691C689.453+337.513+688.549+336.216+687.993+334.802C687.807+334.33+687.668+333.788+687.576+333.175C687.483+332.562+687.437+332.02+687.437+331.549L687.437+253.051C687.437+250.883+688.248+249.044+689.87+247.535C691.492+246.027+693.277+245.131+695.224+244.848C696.151+244.754+697.148+244.895+698.214+245.272C699.28+245.65+700.276+246.192+701.203+246.899C702.131+247.606+702.895+248.431+703.498+249.374C704.101+250.317+704.402+251.307+704.402+252.344C704.402+254.796+704.402+258.049+704.402+262.103C704.402+266.158+704.425+270.59+704.471+275.398C704.518+280.207+704.541+285.181+704.541+290.32C704.541+295.459+704.518+300.386+704.471+305.1C704.425+309.815+704.402+314.128+704.402+318.042C704.402+321.955+704.356+325.09+704.263+327.447L705.514+328.154Z" opacity="1" fill="#000000"/>
</g>
</g>
</svg>
